<mxfile host="app.diagrams.net" modified="2022-12-04T05:05:30.622Z" agent="5.0 (Windows NT 10.0; Win64; x64) AppleWebKit/537.36 (KHTML, like Gecko) Chrome/107.0.0.0 Safari/537.36 Edg/107.0.1418.62" version="20.6.0" etag="dl_vqip77bWuO4RFpi4L" type="github">
  <diagram id="k2S-c6f5Zj3uCOs-y87J" name="第 1 页">
    <mxGraphModel dx="1422" dy="804" grid="1" gridSize="10" guides="1" tooltips="1" connect="1" arrows="1" fold="1" page="1" pageScale="1" pageWidth="827" pageHeight="1169" math="0" shadow="0">
      <root>
        <mxCell id="0" />
        <mxCell id="1" parent="0" />
        <mxCell id="WjT2i1uT53YOb6e9yV-e-91" value="" style="rounded=1;whiteSpace=wrap;html=1;dashed=1;" vertex="1" parent="1">
          <mxGeometry x="140" y="80" width="1120" height="360" as="geometry" />
        </mxCell>
        <mxCell id="WjT2i1uT53YOb6e9yV-e-87" value="" style="rounded=1;whiteSpace=wrap;html=1;dashed=1;" vertex="1" parent="1">
          <mxGeometry x="560" y="200" width="680" height="120" as="geometry" />
        </mxCell>
        <mxCell id="WjT2i1uT53YOb6e9yV-e-104" style="edgeStyle=orthogonalEdgeStyle;rounded=0;orthogonalLoop=1;jettySize=auto;html=1;exitX=0.5;exitY=0;exitDx=0;exitDy=0;" edge="1" parent="1" source="WjT2i1uT53YOb6e9yV-e-28">
          <mxGeometry relative="1" as="geometry">
            <mxPoint x="400" y="440" as="targetPoint" />
            <Array as="points">
              <mxPoint x="400" y="440" />
            </Array>
          </mxGeometry>
        </mxCell>
        <mxCell id="WjT2i1uT53YOb6e9yV-e-28" value="" style="rounded=1;whiteSpace=wrap;html=1;dashed=1;" vertex="1" parent="1">
          <mxGeometry x="160" y="460" width="480" height="160" as="geometry" />
        </mxCell>
        <mxCell id="WjT2i1uT53YOb6e9yV-e-7" value="" style="rounded=1;whiteSpace=wrap;html=1;dashed=1;" vertex="1" parent="1">
          <mxGeometry x="160" y="100" width="360" height="80" as="geometry" />
        </mxCell>
        <mxCell id="WjT2i1uT53YOb6e9yV-e-1" value="离线DQC" style="rounded=1;whiteSpace=wrap;html=1;" vertex="1" parent="1">
          <mxGeometry x="180" y="120" width="80" height="40" as="geometry" />
        </mxCell>
        <mxCell id="WjT2i1uT53YOb6e9yV-e-2" value="离线SLA" style="rounded=1;whiteSpace=wrap;html=1;" vertex="1" parent="1">
          <mxGeometry x="260" y="120" width="80" height="40" as="geometry" />
        </mxCell>
        <mxCell id="WjT2i1uT53YOb6e9yV-e-3" value="实时SLA" style="rounded=1;whiteSpace=wrap;html=1;" vertex="1" parent="1">
          <mxGeometry x="340" y="120" width="80" height="40" as="geometry" />
        </mxCell>
        <mxCell id="WjT2i1uT53YOb6e9yV-e-4" value="离线基线" style="rounded=1;whiteSpace=wrap;html=1;" vertex="1" parent="1">
          <mxGeometry x="420" y="120" width="80" height="40" as="geometry" />
        </mxCell>
        <mxCell id="WjT2i1uT53YOb6e9yV-e-5" value="产品&lt;br&gt;应用" style="rounded=1;whiteSpace=wrap;html=1;" vertex="1" parent="1">
          <mxGeometry x="80" y="120" width="40" height="280" as="geometry" />
        </mxCell>
        <mxCell id="WjT2i1uT53YOb6e9yV-e-8" value="场景定义" style="text;html=1;align=center;verticalAlign=middle;resizable=0;points=[];autosize=1;strokeColor=none;fillColor=none;" vertex="1" parent="1">
          <mxGeometry x="160" y="100" width="70" height="30" as="geometry" />
        </mxCell>
        <mxCell id="WjT2i1uT53YOb6e9yV-e-93" style="edgeStyle=orthogonalEdgeStyle;rounded=0;orthogonalLoop=1;jettySize=auto;html=1;" edge="1" parent="1" source="WjT2i1uT53YOb6e9yV-e-9" target="WjT2i1uT53YOb6e9yV-e-70">
          <mxGeometry relative="1" as="geometry">
            <Array as="points">
              <mxPoint x="700" y="190" />
              <mxPoint x="340" y="190" />
            </Array>
          </mxGeometry>
        </mxCell>
        <mxCell id="WjT2i1uT53YOb6e9yV-e-97" style="edgeStyle=orthogonalEdgeStyle;rounded=0;orthogonalLoop=1;jettySize=auto;html=1;" edge="1" parent="1" source="WjT2i1uT53YOb6e9yV-e-9" target="WjT2i1uT53YOb6e9yV-e-76">
          <mxGeometry relative="1" as="geometry">
            <Array as="points">
              <mxPoint x="700" y="190" />
              <mxPoint x="760" y="190" />
            </Array>
          </mxGeometry>
        </mxCell>
        <mxCell id="WjT2i1uT53YOb6e9yV-e-9" value="" style="rounded=1;whiteSpace=wrap;html=1;dashed=1;" vertex="1" parent="1">
          <mxGeometry x="520" y="100" width="360" height="80" as="geometry" />
        </mxCell>
        <mxCell id="WjT2i1uT53YOb6e9yV-e-10" value="规则集配置" style="rounded=1;whiteSpace=wrap;html=1;" vertex="1" parent="1">
          <mxGeometry x="540" y="120" width="80" height="40" as="geometry" />
        </mxCell>
        <mxCell id="WjT2i1uT53YOb6e9yV-e-11" value="规则配置" style="rounded=1;whiteSpace=wrap;html=1;" vertex="1" parent="1">
          <mxGeometry x="620" y="120" width="80" height="40" as="geometry" />
        </mxCell>
        <mxCell id="WjT2i1uT53YOb6e9yV-e-12" value="基线配置" style="rounded=1;whiteSpace=wrap;html=1;" vertex="1" parent="1">
          <mxGeometry x="700" y="120" width="80" height="40" as="geometry" />
        </mxCell>
        <mxCell id="WjT2i1uT53YOb6e9yV-e-13" value="规则开关" style="rounded=1;whiteSpace=wrap;html=1;" vertex="1" parent="1">
          <mxGeometry x="780" y="120" width="80" height="40" as="geometry" />
        </mxCell>
        <mxCell id="WjT2i1uT53YOb6e9yV-e-14" value="规则配置" style="text;html=1;align=center;verticalAlign=middle;resizable=0;points=[];autosize=1;strokeColor=none;fillColor=none;" vertex="1" parent="1">
          <mxGeometry x="520" y="100" width="70" height="30" as="geometry" />
        </mxCell>
        <mxCell id="WjT2i1uT53YOb6e9yV-e-15" value="业务主存储" style="rounded=1;whiteSpace=wrap;html=1;" vertex="1" parent="1">
          <mxGeometry x="280" y="520" width="80" height="40" as="geometry" />
        </mxCell>
        <mxCell id="WjT2i1uT53YOb6e9yV-e-16" value="分布式缓存" style="rounded=1;whiteSpace=wrap;html=1;" vertex="1" parent="1">
          <mxGeometry x="440" y="520" width="80" height="40" as="geometry" />
        </mxCell>
        <mxCell id="WjT2i1uT53YOb6e9yV-e-19" value="数据&lt;br&gt;存储" style="rounded=1;whiteSpace=wrap;html=1;" vertex="1" parent="1">
          <mxGeometry x="80" y="480" width="40" height="120" as="geometry" />
        </mxCell>
        <mxCell id="WjT2i1uT53YOb6e9yV-e-20" value="" style="rounded=1;whiteSpace=wrap;html=1;dashed=1;" vertex="1" parent="1">
          <mxGeometry x="760" y="460" width="480" height="160" as="geometry" />
        </mxCell>
        <mxCell id="WjT2i1uT53YOb6e9yV-e-26" style="edgeStyle=orthogonalEdgeStyle;rounded=0;orthogonalLoop=1;jettySize=auto;html=1;exitX=0.25;exitY=1;exitDx=0;exitDy=0;" edge="1" parent="1" source="WjT2i1uT53YOb6e9yV-e-21" target="WjT2i1uT53YOb6e9yV-e-22">
          <mxGeometry relative="1" as="geometry" />
        </mxCell>
        <mxCell id="WjT2i1uT53YOb6e9yV-e-27" style="edgeStyle=orthogonalEdgeStyle;rounded=0;orthogonalLoop=1;jettySize=auto;html=1;exitX=0.75;exitY=1;exitDx=0;exitDy=0;" edge="1" parent="1" source="WjT2i1uT53YOb6e9yV-e-21" target="WjT2i1uT53YOb6e9yV-e-24">
          <mxGeometry relative="1" as="geometry" />
        </mxCell>
        <mxCell id="WjT2i1uT53YOb6e9yV-e-21" value="查询代理" style="rounded=1;whiteSpace=wrap;html=1;" vertex="1" parent="1">
          <mxGeometry x="960" y="480" width="80" height="40" as="geometry" />
        </mxCell>
        <mxCell id="WjT2i1uT53YOb6e9yV-e-22" value="OLAP&lt;br&gt;存算集群" style="rounded=1;whiteSpace=wrap;html=1;" vertex="1" parent="1">
          <mxGeometry x="860" y="560" width="80" height="40" as="geometry" />
        </mxCell>
        <mxCell id="WjT2i1uT53YOb6e9yV-e-23" value="数据&lt;br&gt;计算" style="rounded=1;whiteSpace=wrap;html=1;" vertex="1" parent="1">
          <mxGeometry x="680" y="480" width="40" height="120" as="geometry" />
        </mxCell>
        <mxCell id="WjT2i1uT53YOb6e9yV-e-24" value="Spark&lt;br&gt;离线计算集群" style="rounded=1;whiteSpace=wrap;html=1;" vertex="1" parent="1">
          <mxGeometry x="1060" y="560" width="80" height="40" as="geometry" />
        </mxCell>
        <mxCell id="WjT2i1uT53YOb6e9yV-e-99" style="edgeStyle=orthogonalEdgeStyle;rounded=0;orthogonalLoop=1;jettySize=auto;html=1;" edge="1" parent="1" source="WjT2i1uT53YOb6e9yV-e-30" target="WjT2i1uT53YOb6e9yV-e-82">
          <mxGeometry relative="1" as="geometry">
            <Array as="points">
              <mxPoint x="1080" y="190" />
              <mxPoint x="1080" y="190" />
            </Array>
          </mxGeometry>
        </mxCell>
        <mxCell id="WjT2i1uT53YOb6e9yV-e-30" value="" style="rounded=1;whiteSpace=wrap;html=1;dashed=1;" vertex="1" parent="1">
          <mxGeometry x="880" y="100" width="360" height="80" as="geometry" />
        </mxCell>
        <mxCell id="WjT2i1uT53YOb6e9yV-e-31" value="触达渠道" style="rounded=1;whiteSpace=wrap;html=1;" vertex="1" parent="1">
          <mxGeometry x="980" y="120" width="80" height="40" as="geometry" />
        </mxCell>
        <mxCell id="WjT2i1uT53YOb6e9yV-e-32" value="预警对象" style="rounded=1;whiteSpace=wrap;html=1;" vertex="1" parent="1">
          <mxGeometry x="1060" y="120" width="80" height="40" as="geometry" />
        </mxCell>
        <mxCell id="WjT2i1uT53YOb6e9yV-e-33" value="预警文案" style="rounded=1;whiteSpace=wrap;html=1;" vertex="1" parent="1">
          <mxGeometry x="900" y="120" width="80" height="40" as="geometry" />
        </mxCell>
        <mxCell id="WjT2i1uT53YOb6e9yV-e-35" value="预警配置" style="text;html=1;align=center;verticalAlign=middle;resizable=0;points=[];autosize=1;strokeColor=none;fillColor=none;" vertex="1" parent="1">
          <mxGeometry x="880" y="100" width="70" height="30" as="geometry" />
        </mxCell>
        <mxCell id="WjT2i1uT53YOb6e9yV-e-36" value="" style="rounded=1;whiteSpace=wrap;html=1;dashed=1;" vertex="1" parent="1">
          <mxGeometry x="160" y="340" width="360" height="80" as="geometry" />
        </mxCell>
        <mxCell id="WjT2i1uT53YOb6e9yV-e-37" value="数据问题" style="rounded=1;whiteSpace=wrap;html=1;" vertex="1" parent="1">
          <mxGeometry x="180" y="360" width="80" height="40" as="geometry" />
        </mxCell>
        <mxCell id="WjT2i1uT53YOb6e9yV-e-38" value="任务问题" style="rounded=1;whiteSpace=wrap;html=1;" vertex="1" parent="1">
          <mxGeometry x="260" y="360" width="80" height="40" as="geometry" />
        </mxCell>
        <mxCell id="WjT2i1uT53YOb6e9yV-e-39" value="数据日志" style="rounded=1;whiteSpace=wrap;html=1;" vertex="1" parent="1">
          <mxGeometry x="340" y="360" width="80" height="40" as="geometry" />
        </mxCell>
        <mxCell id="WjT2i1uT53YOb6e9yV-e-40" value="基线日志" style="rounded=1;whiteSpace=wrap;html=1;" vertex="1" parent="1">
          <mxGeometry x="420" y="360" width="80" height="40" as="geometry" />
        </mxCell>
        <mxCell id="WjT2i1uT53YOb6e9yV-e-41" value="检测报告" style="text;html=1;align=center;verticalAlign=middle;resizable=0;points=[];autosize=1;strokeColor=none;fillColor=none;" vertex="1" parent="1">
          <mxGeometry x="160" y="340" width="70" height="30" as="geometry" />
        </mxCell>
        <mxCell id="WjT2i1uT53YOb6e9yV-e-49" value="" style="rounded=1;whiteSpace=wrap;html=1;dashed=1;" vertex="1" parent="1">
          <mxGeometry x="800" y="340" width="440" height="80" as="geometry" />
        </mxCell>
        <mxCell id="WjT2i1uT53YOb6e9yV-e-50" value="告警趋势" style="rounded=1;whiteSpace=wrap;html=1;" vertex="1" parent="1">
          <mxGeometry x="820" y="360" width="80" height="40" as="geometry" />
        </mxCell>
        <mxCell id="WjT2i1uT53YOb6e9yV-e-51" value="检测可靠性" style="rounded=1;whiteSpace=wrap;html=1;" vertex="1" parent="1">
          <mxGeometry x="900" y="360" width="80" height="40" as="geometry" />
        </mxCell>
        <mxCell id="WjT2i1uT53YOb6e9yV-e-52" value="任务稳定性" style="rounded=1;whiteSpace=wrap;html=1;" vertex="1" parent="1">
          <mxGeometry x="980" y="360" width="80" height="40" as="geometry" />
        </mxCell>
        <mxCell id="WjT2i1uT53YOb6e9yV-e-53" value="事件质量分" style="rounded=1;whiteSpace=wrap;html=1;" vertex="1" parent="1">
          <mxGeometry x="1060" y="360" width="80" height="40" as="geometry" />
        </mxCell>
        <mxCell id="WjT2i1uT53YOb6e9yV-e-54" value="业务监控" style="text;html=1;align=center;verticalAlign=middle;resizable=0;points=[];autosize=1;strokeColor=none;fillColor=none;" vertex="1" parent="1">
          <mxGeometry x="800" y="340" width="70" height="30" as="geometry" />
        </mxCell>
        <mxCell id="WjT2i1uT53YOb6e9yV-e-55" value="表质量分" style="rounded=1;whiteSpace=wrap;html=1;" vertex="1" parent="1">
          <mxGeometry x="1141" y="360" width="80" height="40" as="geometry" />
        </mxCell>
        <mxCell id="WjT2i1uT53YOb6e9yV-e-56" value="预警降噪" style="rounded=1;whiteSpace=wrap;html=1;" vertex="1" parent="1">
          <mxGeometry x="1141" y="120" width="80" height="40" as="geometry" />
        </mxCell>
        <mxCell id="WjT2i1uT53YOb6e9yV-e-70" value="" style="rounded=1;whiteSpace=wrap;html=1;dashed=1;" vertex="1" parent="1">
          <mxGeometry x="160" y="220" width="360" height="80" as="geometry" />
        </mxCell>
        <mxCell id="WjT2i1uT53YOb6e9yV-e-71" value="离线DQC规则" style="rounded=1;whiteSpace=wrap;html=1;" vertex="1" parent="1">
          <mxGeometry x="180" y="240" width="80" height="40" as="geometry" />
        </mxCell>
        <mxCell id="WjT2i1uT53YOb6e9yV-e-72" value="离线SLA规则" style="rounded=1;whiteSpace=wrap;html=1;" vertex="1" parent="1">
          <mxGeometry x="260" y="240" width="80" height="40" as="geometry" />
        </mxCell>
        <mxCell id="WjT2i1uT53YOb6e9yV-e-73" value="实时SLA规则" style="rounded=1;whiteSpace=wrap;html=1;" vertex="1" parent="1">
          <mxGeometry x="340" y="240" width="80" height="40" as="geometry" />
        </mxCell>
        <mxCell id="WjT2i1uT53YOb6e9yV-e-74" value="离线基线规则" style="rounded=1;whiteSpace=wrap;html=1;" vertex="1" parent="1">
          <mxGeometry x="420" y="240" width="80" height="40" as="geometry" />
        </mxCell>
        <mxCell id="WjT2i1uT53YOb6e9yV-e-75" value="检测指标" style="text;html=1;align=center;verticalAlign=middle;resizable=0;points=[];autosize=1;strokeColor=none;fillColor=none;" vertex="1" parent="1">
          <mxGeometry x="160" y="220" width="70" height="30" as="geometry" />
        </mxCell>
        <mxCell id="WjT2i1uT53YOb6e9yV-e-100" style="edgeStyle=orthogonalEdgeStyle;rounded=0;orthogonalLoop=1;jettySize=auto;html=1;" edge="1" parent="1" source="WjT2i1uT53YOb6e9yV-e-76" target="WjT2i1uT53YOb6e9yV-e-82">
          <mxGeometry relative="1" as="geometry" />
        </mxCell>
        <mxCell id="WjT2i1uT53YOb6e9yV-e-76" value="" style="rounded=1;whiteSpace=wrap;html=1;dashed=1;" vertex="1" parent="1">
          <mxGeometry x="620" y="220" width="280" height="80" as="geometry" />
        </mxCell>
        <mxCell id="WjT2i1uT53YOb6e9yV-e-77" value="任务执行" style="rounded=1;whiteSpace=wrap;html=1;" vertex="1" parent="1">
          <mxGeometry x="640" y="240" width="80" height="40" as="geometry" />
        </mxCell>
        <mxCell id="WjT2i1uT53YOb6e9yV-e-101" style="edgeStyle=orthogonalEdgeStyle;rounded=0;orthogonalLoop=1;jettySize=auto;html=1;" edge="1" parent="1" source="WjT2i1uT53YOb6e9yV-e-78" target="WjT2i1uT53YOb6e9yV-e-21">
          <mxGeometry relative="1" as="geometry">
            <Array as="points">
              <mxPoint x="760" y="450" />
              <mxPoint x="1000" y="450" />
            </Array>
          </mxGeometry>
        </mxCell>
        <mxCell id="WjT2i1uT53YOb6e9yV-e-78" value="数据采集" style="rounded=1;whiteSpace=wrap;html=1;" vertex="1" parent="1">
          <mxGeometry x="720" y="240" width="80" height="40" as="geometry" />
        </mxCell>
        <mxCell id="WjT2i1uT53YOb6e9yV-e-102" style="edgeStyle=orthogonalEdgeStyle;rounded=0;orthogonalLoop=1;jettySize=auto;html=1;" edge="1" parent="1" source="WjT2i1uT53YOb6e9yV-e-79" target="WjT2i1uT53YOb6e9yV-e-36">
          <mxGeometry relative="1" as="geometry">
            <Array as="points">
              <mxPoint x="840" y="330" />
              <mxPoint x="340" y="330" />
            </Array>
          </mxGeometry>
        </mxCell>
        <mxCell id="WjT2i1uT53YOb6e9yV-e-79" value="执行日志" style="rounded=1;whiteSpace=wrap;html=1;" vertex="1" parent="1">
          <mxGeometry x="800" y="240" width="80" height="40" as="geometry" />
        </mxCell>
        <mxCell id="WjT2i1uT53YOb6e9yV-e-81" value="执行引擎" style="text;html=1;align=center;verticalAlign=middle;resizable=0;points=[];autosize=1;strokeColor=none;fillColor=none;" vertex="1" parent="1">
          <mxGeometry x="620" y="220" width="70" height="30" as="geometry" />
        </mxCell>
        <mxCell id="WjT2i1uT53YOb6e9yV-e-82" value="" style="rounded=1;whiteSpace=wrap;html=1;dashed=1;" vertex="1" parent="1">
          <mxGeometry x="980" y="220" width="200" height="80" as="geometry" />
        </mxCell>
        <mxCell id="WjT2i1uT53YOb6e9yV-e-83" value="预警消息封装" style="rounded=1;whiteSpace=wrap;html=1;" vertex="1" parent="1">
          <mxGeometry x="1000" y="240" width="80" height="40" as="geometry" />
        </mxCell>
        <mxCell id="WjT2i1uT53YOb6e9yV-e-84" value="预警消息发送" style="rounded=1;whiteSpace=wrap;html=1;" vertex="1" parent="1">
          <mxGeometry x="1080" y="240" width="80" height="40" as="geometry" />
        </mxCell>
        <mxCell id="WjT2i1uT53YOb6e9yV-e-86" value="预警触达" style="text;html=1;align=center;verticalAlign=middle;resizable=0;points=[];autosize=1;strokeColor=none;fillColor=none;" vertex="1" parent="1">
          <mxGeometry x="980" y="220" width="70" height="30" as="geometry" />
        </mxCell>
        <mxCell id="WjT2i1uT53YOb6e9yV-e-90" value="执行模块" style="text;html=1;align=center;verticalAlign=middle;resizable=0;points=[];autosize=1;strokeColor=none;fillColor=none;" vertex="1" parent="1">
          <mxGeometry x="560" y="200" width="70" height="30" as="geometry" />
        </mxCell>
      </root>
    </mxGraphModel>
  </diagram>
</mxfile>
